# xmcd
#
# Track frame offsets:
#	150
#	39082
#	61135
#	70497
#	92196
#	111809
#	135634
#	153281
#
# Disc length: 2317 seconds
#
# Revision: 0
# Processed by: cddbd v1.5.2PL0 Copyright (c) Steve Scherf et al.
# Submitted via: audiograbber 1.83.01
#
DISCID=63090b08
DTITLE=Årabrot - Solar Anus
DYEAR=2011
DGENRE=Metal
TTITLE0=Solar Anus
TTITLE1=And The Ass Had Spoken
TTITLE2=Madonna Was A Whore
TTITLE3=Valkyrie
TTITLE4=Nubile
TTITLE5=Auto Da Fe
TTITLE6=Odine
TTITLE7=The Wheel Is Turning Full Circle
EXTD=
EXTT0=
EXTT1=
EXTT2=
EXTT3=
EXTT4=
EXTT5=
EXTT6=
EXTT7=
PLAYORDER=
